<?xml version="1.0" standalone="no"?>
<!DOCTYPE svg PUBLIC "-//W3C//DTD SVG 20010904//EN"
 "http://www.w3.org/TR/2001/REC-SVG-20010904/DTD/svg10.dtd">
<svg version="1.0" xmlns="http://www.w3.org/2000/svg"
 width="260.000000pt" height="260.000000pt" viewBox="0 0 260.000000 260.000000"
 preserveAspectRatio="xMidYMid meet">
<metadata>
Created by potrace 1.14, written by Peter Selinger 2001-2017
</metadata>
<g transform="translate(0.000000,260.000000) scale(0.100000,-0.100000)"
fill="#000000" stroke="none">
<path d="M1567 1565 l-239 -245 241 0 241 0 0 245 c0 135 -1 245 -2 245 -2 -1
-110 -111 -241 -245z"/>
<path d="M1860 1568 l0 -243 240 240 c132 132 240 241 240 242 0 2 -108 3
-240 3 l-240 0 0 -242z"/>
<path d="M505 1560 l-240 -240 243 0 242 0 0 240 c0 132 -1 240 -3 240 -1 0
-110 -108 -242 -240z"/>
<path d="M1035 1560 l-240 -240 243 0 242 0 0 240 c0 132 -1 240 -3 240 -1 0
-110 -108 -242 -240z"/>
<path d="M270 1035 l0 -245 240 0 240 0 0 245 0 245 -240 0 -240 0 0 -245z"/>
<path d="M800 1035 l0 -245 240 0 240 0 0 245 0 245 -240 0 -240 0 0 -245z"/>
<path d="M1860 1038 l0 -243 240 240 c132 132 240 241 240 242 0 2 -108 3
-240 3 l-240 0 0 -242z"/>
<path d="M1565 1030 l-240 -240 243 0 242 0 0 240 c0 132 -1 240 -3 240 -1 0
-110 -108 -242 -240z"/>
</g>
</svg>
